<svg width="37" height="36" viewBox="0 0 37 36" fill="none" xmlns="http://www.w3.org/2000/svg">
<path d="M18.7672 30.8C25.8917 30.8 31.6672 25.0245 31.6672 17.9C31.6672 10.7755 25.8917 5 18.7672 5C11.6427 5 5.86719 10.7755 5.86719 17.9C5.86719 25.0245 11.6427 30.8 18.7672 30.8Z" fill="#3C5A9A"/>
<path d="M22.3668 8.6123H19.5628C17.8988 8.6123 16.048 9.35328 16.048 11.9071C16.0562 12.7969 16.048 13.6491 16.048 14.6082H14.123V17.8515H16.1076V27.1883H19.7543V17.7898H22.1613L22.379 14.5991H19.6915C19.6915 14.5991 19.6975 13.1797 19.6915 12.7675C19.6915 11.7583 20.6833 11.8161 20.7429 11.8161C21.2149 11.8161 22.1326 11.8175 22.3681 11.8161V8.6123H22.3668Z" fill="white"/>
</svg>
