<svg width="37" height="36" viewBox="0 0 37 36" fill="none" xmlns="http://www.w3.org/2000/svg">
<g clip-path="url(#clip0_1_34016)">
<path d="M26.3528 18.8535C26.354 20.6227 25.7307 22.3355 24.5929 23.6902C23.4551 25.045 21.8757 25.9547 20.1329 26.2591C18.3901 26.5635 16.5958 26.2432 15.0661 25.3544C13.5364 24.4657 12.3694 23.0656 11.7707 21.4008L7.4707 24.8407C8.80777 27.3824 10.9579 29.4028 13.5778 30.5793C16.1976 31.7558 19.1362 32.0205 21.9241 31.3313C24.7121 30.642 27.1887 29.0385 28.9586 26.7767C30.7284 24.515 31.6894 21.7254 31.688 18.8535" fill="#00AC47"/>
<path d="M26.3515 18.8535C26.3505 20.0496 26.0637 21.2281 25.5151 22.2909C24.9664 23.3537 24.1718 24.27 23.1973 24.9636L27.4484 28.3644C28.7814 27.1643 29.8475 25.6975 30.5776 24.0591C31.3077 22.4207 31.6856 20.6472 31.6867 18.8535" fill="#4285F4"/>
<path d="M11.3157 18.8534C11.3176 17.9844 11.4711 17.1224 11.7694 16.3062L7.46939 12.8662C6.49167 14.7104 5.98047 16.7661 5.98047 18.8534C5.98047 20.9408 6.49167 22.9964 7.46939 24.8407L11.7694 21.4007C11.4711 20.5845 11.3176 19.7225 11.3157 18.8534Z" fill="#FFBA00"/>
<path d="M18.8349 11.3353C20.4257 11.3357 21.9747 11.8441 23.2564 12.7863L27.1948 9.11047C25.7328 7.84995 24.005 6.93587 22.1404 6.43646C20.2757 5.93704 18.3224 5.86518 16.4261 6.22623C14.5298 6.58728 12.7395 7.37193 11.1888 8.52162C9.63818 9.6713 8.36719 11.1563 7.4707 12.8659L11.7707 16.3059C12.2952 14.8522 13.2545 13.5952 14.5184 12.7058C15.7824 11.8165 17.2895 11.338 18.8349 11.3353Z" fill="#EA4435"/>
<path d="M31.6865 17.8831V18.8532L29.5039 22.2483H19.3184V16.9131H30.7164C30.9737 16.9131 31.2204 17.0153 31.4024 17.1972C31.5843 17.3791 31.6865 17.6259 31.6865 17.8831Z" fill="#4285F4"/>
</g>
<defs>
<clipPath id="clip0_1_34016">
<rect width="36" height="36" fill="white" transform="translate(0.833984)"/>
</clipPath>
</defs>
</svg>
