<svg width="114" height="37" viewBox="0 0 114 37" fill="none" xmlns="http://www.w3.org/2000/svg">
<path d="M22.3337 -0.000232112H21.6013C18.278 -0.000232112 14.7689 -0.088275 11.9375 1.65057C7.57574 4.33588 6.03436 9.37633 5.2254 12.876L0 36.9337L1.28995 36.9888C6.02343 37.1979 10.2103 33.8963 11.1504 29.219L11.1614 29.175C11.3254 28.2835 11.5877 26.9959 11.9157 25.4441L12.2218 23.9364H12.2436C13.6648 17.3882 14.4846 13.5364 15.2171 10.4108C15.3811 9.7175 15.8839 7.28531 17.1192 4.06074C18.0266 1.68359 21.0984 0.506014 22.3337 -0.000232112Z" fill="url(#paint0_linear_1_33979)"/>
<path d="M17.459 24.1676C20.4215 24.2227 23.0342 23.7824 25.2862 22.847C27.7458 21.8455 29.7135 20.4808 31.1893 18.753C32.6651 16.9921 33.6381 15.0332 34.1081 12.8761C34.294 12.1278 34.4033 11.3134 34.4361 10.4219C34.5126 8.58405 34.1737 6.97727 33.4304 5.57959L25.1222 11.2363L25.8109 7.79167C23.5043 7.14235 21.1321 8.56204 20.5855 10.8952L17.459 24.1676Z" fill="url(#paint1_linear_1_33979)"/>
<path d="M49.4898 17.9681C49.3675 18.6878 49.0853 19.3491 48.6619 19.9521C48.2386 20.5453 47.6647 21.0219 46.9497 21.3914C46.2441 21.761 45.4068 21.9458 44.4566 21.9555L42.6879 21.9652L41.8506 26.4194L39 26.4388L41.3144 14.0197L45.9336 14.0002C47.1567 13.9905 48.0692 14.2823 48.6808 14.8463C49.2923 15.4104 49.5839 16.1787 49.5651 17.1512C49.5651 17.4527 49.5369 17.7153 49.4898 17.9681ZM44.673 19.5825C45.7361 19.5728 46.3758 19.0476 46.5922 17.9876C46.6204 17.8028 46.6298 17.6667 46.6298 17.5791C46.6392 17.1998 46.5263 16.9178 46.3006 16.7136C46.0842 16.4996 45.7361 16.4024 45.2751 16.4024L43.7228 16.4121L43.1395 19.5923L44.673 19.5825ZM49.5839 21.4303C49.7721 20.4189 50.1202 19.5242 50.6188 18.7559C51.1268 17.9876 51.7289 17.3944 52.4251 16.9762C53.1213 16.558 53.8551 16.3537 54.6266 16.344C55.2851 16.344 55.8308 16.4802 56.273 16.7622C56.7151 17.0442 57.0256 17.4138 57.2138 17.8709L57.4772 16.4705L60.3278 16.451L58.4744 26.3124L55.6238 26.3319L55.906 24.9314C55.5391 25.3885 55.0876 25.7678 54.5325 26.0498C53.9774 26.3319 53.3753 26.4778 52.7262 26.4875C52.077 26.4972 51.4937 26.3319 50.9857 26.0207C50.4965 25.7095 50.1108 25.2621 49.8473 24.6883C49.5839 24.1048 49.4522 23.4143 49.471 22.6265C49.471 22.2473 49.5087 21.8485 49.5839 21.4303ZM56.5552 21.4109C56.5928 21.1969 56.6116 21.0024 56.6211 20.8274C56.6305 20.2536 56.4799 19.7965 56.1695 19.4658C55.8684 19.1352 55.4639 18.9796 54.9747 18.9796C54.4102 18.9796 53.8833 19.2033 53.4129 19.6409C52.9331 20.0688 52.6321 20.662 52.491 21.4109C52.4533 21.6248 52.4345 21.8193 52.4251 21.9944C52.4157 22.5682 52.5568 23.0253 52.8673 23.3657C53.1872 23.6963 53.5823 23.8519 54.0621 23.8519C54.6266 23.8519 55.1534 23.6282 55.6238 23.1906C56.0942 22.7627 56.4047 22.1597 56.5552 21.4109ZM64.3167 16.4413L65.3234 22.5974L68.6162 16.4218L71.702 16.4024L63.1596 30.9805L60.0926 31L63.1596 25.972L61.1463 16.4607L64.3167 16.4413ZM84.4403 16.2273C85.4375 16.2176 86.209 16.4996 86.7546 17.0637C87.3097 17.618 87.5825 18.3863 87.5543 19.388C87.5449 19.6895 87.5073 20.0396 87.432 20.4092L86.3595 26.1763L83.5277 26.1957L84.5344 20.8371C84.5626 20.7204 84.572 20.5648 84.5814 20.3606C84.5908 19.8646 84.4685 19.4853 84.2051 19.2324C83.9511 18.9796 83.5936 18.8434 83.1326 18.8531C82.5775 18.8531 82.1071 19.0379 81.7214 19.388C81.3357 19.7284 81.0911 20.2244 80.9782 20.8565L79.9715 26.2152L77.1397 26.2346L78.1464 20.876C78.1746 20.7593 78.184 20.6037 78.1934 20.3995C78.2028 19.9035 78.0805 19.5242 77.8171 19.2713C77.5631 19.0185 77.2056 18.8823 76.7446 18.892C76.1895 18.892 75.7191 19.0768 75.3334 19.4269C74.9477 19.7673 74.7031 20.2633 74.5902 20.8954V20.8079L73.5835 26.2541L70.7329 26.2735L72.5675 16.4121L75.4181 16.3926L75.1923 17.6472C75.5592 17.2193 75.992 16.8886 76.5 16.6552C77.0174 16.4024 77.5725 16.2759 78.1558 16.2759C78.8708 16.2759 79.4635 16.4316 79.9433 16.7428C80.4325 17.054 80.7806 17.5111 80.9782 18.114C81.4015 17.5597 81.919 17.1123 82.5399 16.7622C83.1326 16.4121 83.7817 16.237 84.4403 16.2273ZM92.4182 26.2832C91.6185 26.2832 90.9129 26.1179 90.292 25.7775C89.6805 25.4371 89.2007 24.9606 88.8714 24.3382C88.5516 23.7158 88.401 22.9961 88.4104 22.1695C88.4293 21.0511 88.7021 20.0299 89.2195 19.106C89.737 18.1821 90.4426 17.4624 91.3269 16.9373C92.2112 16.4024 93.1991 16.1301 94.281 16.1301C95.0807 16.1301 95.7863 16.2954 96.4072 16.6455C97.0375 16.9859 97.5173 17.4624 97.8466 18.0848C98.1759 18.7073 98.3358 19.4269 98.317 20.2536C98.2982 21.3817 98.0159 22.4126 97.4891 23.3268C96.9717 24.2312 96.2661 24.9509 95.3629 25.476C94.4786 26.0207 93.5001 26.2832 92.4182 26.2832ZM92.8698 23.6866C93.3402 23.6866 93.7541 23.531 94.1305 23.2392C94.5162 22.928 94.8078 22.539 95.0242 22.0722C95.2406 21.5859 95.3629 21.09 95.3723 20.5648C95.3817 19.9715 95.2406 19.5242 94.9489 19.2033C94.6573 18.8823 94.281 18.7267 93.82 18.7364C93.3402 18.7364 92.9168 18.892 92.5405 19.2033C92.183 19.495 91.8914 19.8937 91.6844 20.3703C91.4774 20.8565 91.3645 21.3623 91.3551 21.8874C91.3457 22.4612 91.4774 22.9086 91.7597 23.2295C92.0513 23.5407 92.4182 23.6963 92.8698 23.6866ZM102.72 17.7639C103.162 17.1707 103.425 16.947 103.99 16.6163C104.63 16.2662 105.307 16.237 105.919 16.2273L105.439 18.6975L104.649 18.717C104.601 18.717 104.545 18.7267 104.498 18.7267C103.689 18.8726 103.275 19.2033 102.767 19.6506C102.24 20.2244 102.146 20.7107 101.995 21.5276L101.139 26.1082L98.2888 26.1276L100.114 16.2565L102.965 16.237L102.72 17.7639ZM108.685 23.5699L112.739 23.5504L112.26 26.0401L105.034 26.079L105.495 23.6769L110.284 18.6878L106.445 18.7073L106.916 16.2176L114 16.1787L113.548 18.5808L108.685 23.5699Z" fill="#232B31"/>
<defs>
<linearGradient id="paint0_linear_1_33979" x1="-4.68429" y1="20.8432" x2="40.2764" y2="13.7847" gradientUnits="userSpaceOnUse">
<stop stop-color="#F6DEC6"/>
<stop offset="0.47" stop-color="#E872D4"/>
<stop offset="0.6567" stop-color="#C190D9"/>
<stop offset="0.8816" stop-color="#A2DCFE"/>
</linearGradient>
<linearGradient id="paint1_linear_1_33979" x1="-4.83394" y1="19.8845" x2="40.1267" y2="12.8259" gradientUnits="userSpaceOnUse">
<stop stop-color="#F6DEC6"/>
<stop offset="0.47" stop-color="#E872D4"/>
<stop offset="0.6567" stop-color="#C190D9"/>
<stop offset="0.8816" stop-color="#A2DCFE"/>
</linearGradient>
</defs>
</svg>
